# Blender 3.6.2
# www.blender.org
mtllib grass.mtl
o Plane
v -0.119012 1.060397 0.012064
v -0.117768 1.058202 -0.012064
v -0.088172 0.976613 0.030087
v -0.045416 0.764401 0.054975
v -0.009990 0.452421 0.080635
v 0.000812 0.194719 0.080581
v -0.000055 -0.024930 0.070694
v -0.000055 -0.024930 -0.070694
v 0.000812 0.194720 -0.080581
v -0.010115 0.452421 -0.080635
v -0.044862 0.763063 -0.041093
v -0.086293 0.973242 -0.012899
v -0.100782 0.867980 0.220310
v -0.112054 0.865784 0.198942
v -0.065063 0.784195 0.220024
v -0.015593 0.571983 0.219541
v 0.027973 0.260004 0.223471
v 0.037228 0.110879 0.217900
v 0.031426 -0.029836 0.209848
v -0.040891 -0.029836 0.088353
v -0.045203 0.110882 0.079414
v -0.054620 0.260003 0.084956
v -0.064254 0.570645 0.136707
v -0.085434 0.780824 0.182125
v -0.097945 0.939387 -0.206495
v -0.080129 0.937191 -0.222812
v -0.088618 0.855602 -0.172014
v -0.075619 0.643390 -0.124280
v -0.068384 0.418742 -0.081140
v -0.060650 0.189813 -0.073598
v -0.054330 -0.029836 -0.081251
v 0.044881 -0.029836 -0.181988
v 0.052436 0.189814 -0.188424
v 0.044688 0.418754 -0.196130
v -0.007815 0.642052 -0.192338
v -0.057117 0.852231 -0.201321
vn 0.9375 0.3477 0.0148
vn 0.9772 0.2122 0.0110
vn 0.9685 0.2489 0.0121
vn 0.9920 0.1265 0.0027
vn 0.9922 0.1243 0.0025
vn 0.9980 0.0632 0.0001
vn 0.9983 0.0584 -0.0000
vn 0.9997 0.0246 -0.0002
vn 1.0000 -0.0039 -0.0000
vn 0.8131 0.3477 -0.4668
vn 0.8330 0.2735 -0.4810
vn 0.8454 0.2117 -0.4904
vn 0.8522 0.1515 -0.5008
vn 0.8541 0.1201 -0.5061
vn 0.8556 0.0949 -0.5088
vn 0.8565 0.0787 -0.5100
vn 0.8581 0.0498 -0.5111
vn 0.8585 0.0387 -0.5113
vn 0.8593 -0.0062 -0.5115
vn 0.6576 0.3477 0.6684
vn 0.6898 0.2046 0.6945
vn 0.6684 0.3070 0.6775
vn 0.7022 0.1586 0.6941
vn 0.6970 0.1766 0.6950
vn 0.7112 0.0626 0.7002
vn 0.7083 0.1057 0.6980
vn 0.7124 0.0220 0.7014
vn 0.7124 0.0289 0.7012
vn 0.7125 -0.0039 0.7017
vt 0.000000 0.000000
vt 0.111111 0.000000
vt 0.111111 1.000000
vt 0.000000 1.000000
vt 0.222222 0.000000
vt 0.222222 1.000000
vt 0.333333 0.000000
vt 0.333333 1.000000
vt 0.444444 0.000000
vt 0.444444 1.000000
vt 0.555556 0.000000
vt 0.555556 1.000000
s 1
usemtl Grass
f 1/1/1 3/2/2 12/3/3 2/4/1
f 3/2/2 4/5/4 11/6/5 12/3/3
f 4/5/4 5/7/6 10/8/7 11/6/5
f 5/7/6 6/9/8 9/10/8 10/8/7
f 6/9/8 7/11/9 8/12/9 9/10/8
f 13/1/10 15/2/11 24/3/12 14/4/10
f 15/2/11 16/5/13 23/6/14 24/3/12
f 16/5/13 17/7/15 22/8/16 23/6/14
f 17/7/15 18/9/17 21/10/18 22/8/16
f 18/9/17 19/11/19 20/12/19 21/10/18
f 25/1/20 27/2/21 36/3/22 26/4/20
f 27/2/21 28/5/23 35/6/24 36/3/22
f 28/5/23 29/7/25 34/8/26 35/6/24
f 29/7/25 30/9/27 33/10/28 34/8/26
f 30/9/27 31/11/29 32/12/29 33/10/28
